@startuml
class "std::string" as C_0001275076681856179721
class C_0001275076681856179721 {
__
}
class "std::vector<std::string>" as C_0001347152004389415025
class C_0001347152004389415025 {
__
}
class "Deck" as C_0011421706713288580637
class C_0011421706713288580637 {
+Deck(int numDecks) : void
+Deck(const std::vector<std::string> & cards) : void
..
+buildDeck(int numDecks) : void
+draw() : std::string
+reset() : void
+shuffle() : void
+size() : int
__
{static} -RANKS : const std::vector<std::string>
{static} -SUITS : const std::vector<std::string>
-deck : std::vector<std::string>
-numDecks : int
}
class "Player" as C_0003605716991605700936
class C_0003605716991605700936 {
+Player(const std::string & name, int budget) : void
..
+drawFrom(Deck & deck) : void
+getBudget() const : int
+getHandValue() const : int
+getName() const : std::string
+getStake() const : int
+giveCard(std::string card) : void
+handToString() const : std::string
+hasNatural() const : bool
+resetHand() : void
+setBudget(int newBudget) : void
+setHasNatural(bool newNatural) : void
+setStake(int newStake) : void
+showBudget() const : void
+showFirstCard() const : void
+showHand() const : void
__
-budget : int
-hand : std::vector<std::string>
-hasNaturalAttribute : bool
-name : std::string
-stake : int
}
class "Blackjack" as C_0011002318344043217156
class C_0011002318344043217156 {
+Blackjack(Player & dealer, Player & player, Deck & deck) : void
..
-evaluateResults() : void
-performPlayerTurn(Player & p, Deck & deck) : void
+playRound() : void
-readDecision(const Player & p) : char
-setStake() : void
__
-dealer : Player &
-deck : Deck &
-player : Player &
}
C_0001347152004389415025 ..> C_0001275076681856179721
C_0011421706713288580637 ..> C_0001275076681856179721
C_0011421706713288580637 o-- C_0001347152004389415025 : -deck
C_0003605716991605700936 ..> C_0011421706713288580637
C_0003605716991605700936 o-- C_0001275076681856179721 : -name
C_0003605716991605700936 o-- C_0001347152004389415025 : -hand
C_0011002318344043217156 --> C_0003605716991605700936 : -player
C_0011002318344043217156 --> C_0003605716991605700936 : -dealer
C_0011002318344043217156 --> C_0011421706713288580637 : -deck

'Generated with clang-uml, version 0.6.2
'LLVM version Ubuntu clang version 18.1.3 (1ubuntu1)
@enduml
